<?xml version="1.0" encoding="UTF-8"?>
<svg width="116px" height="95px" viewBox="0 0 116 95" version="1.1" xmlns="http://www.w3.org/2000/svg" xmlns:xlink="http://www.w3.org/1999/xlink">
    <!-- Generator: Sketch 47 (45396) - http://www.bohemiancoding.com/sketch -->
    <title>bike</title>
    <desc>Created with Sketch.</desc>
    <defs></defs>
    <g id="Page-1" stroke="none" stroke-width="1" fill="none" fill-rule="evenodd">
        <g id="Desktop-HD" transform="translate(-583.000000, -939.000000)" fill-rule="nonzero" fill="#CCCCCC">
            <g id="Group-11" transform="translate(140.000000, 738.000000)">
                <g id="Group-7-Copy" transform="translate(282.000000, 150.000000)">
                    <g id="car-wheel">
                        <g id="bike">
                            <g transform="translate(241.905164, 98.677322) scale(-1, 1) translate(-241.905164, -98.677322) translate(161.547683, 50.795921)" id="Capa_1">
                                <g>
                                    <path d="M129.82396,34.4155632 C128.57197,34.4155632 127.340318,34.4999138 126.127516,34.6472794 L118.505956,8.54918691 C119.250502,7.68136753 119.702885,6.55553439 119.702885,5.32252629 C119.702885,2.58261856 117.481646,0.360723093 114.742547,0.360723093 L94.2816473,0.360723093 C91.5425484,0.360723093 89.3213089,2.58261856 89.3213089,5.32252629 C89.3213089,8.06243402 91.5425484,10.2843295 94.2816473,10.2843295 L107.240531,10.2843295 L101.97166,18.6732502 C101.73902,18.6434793 101.500428,18.6266092 101.261339,18.6330596 L56.9645257,19.2756131 C58.0622486,18.3656184 58.7616563,16.9911989 58.7616563,15.4540322 C58.7616563,12.7141245 56.5409128,10.492229 53.801318,10.492229 L41.8518629,10.492229 C39.112268,10.492229 36.8915245,12.7141245 36.8915245,15.4540322 C36.8915245,18.19394 39.112268,20.4158354 41.8518629,20.4158354 L42.7442277,20.4158354 C42.8632758,20.8599168 43.0433361,21.295067 43.2943293,21.707889 L45.2864011,24.9871447 L39.7883621,35.837616 C36.8791236,34.9157129 33.7838725,34.415067 30.5735415,34.415067 C13.7153356,34.4155632 0,48.1344528 0,64.9981334 C0,81.8618139 13.7153356,95.5811997 30.5735415,95.5811997 C45.1321346,95.5811997 57.3380392,85.3464883 60.4000561,71.694583 L76.7582599,72.641295 C76.8544905,72.646753 76.950225,72.6497301 77.0454635,72.6497301 C78.7443794,72.6497301 80.3341679,71.7774451 81.244886,70.32711 L111.93946,21.4558294 L116.603666,37.4258892 C106.346182,42.3668528 99.2499222,52.8690054 99.2499222,64.9981334 C99.2499222,81.8613177 112.965258,95.5811997 129.82396,95.5811997 C146.682662,95.5811997 160.397997,81.8618139 160.397997,64.9981334 C160.397997,48.1344528 146.682166,34.4155632 129.82396,34.4155632 Z M51.3499188,34.9702928 L67.8822305,62.1872718 L60.9774395,61.7878467 C60.0568007,53.0004932 55.399043,45.3126754 48.6291732,40.3389638 L51.3499188,34.9702928 Z M9.92067672,64.9981334 C9.92067672,53.6068256 19.1855967,44.3391696 30.5735415,44.3391696 C32.1682903,44.3391696 33.7193881,44.5267257 35.2109619,44.8710749 L26.1489197,62.7553983 C25.3924681,64.2479087 25.4390953,66.0212572 26.2734242,67.4720884 C27.1077531,68.9229197 28.616688,69.8552425 30.286834,69.9519977 L50.3032874,71.1105787 C47.6921652,79.5277817 39.8349893,85.6575933 30.5735415,85.6575933 C19.1855967,85.6575933 9.92067672,76.3899373 9.92067672,64.9981334 Z M38.4227809,60.4819001 L44.0547491,49.3669647 C47.5299622,52.3703442 49.9957464,56.5084881 50.8712461,61.2023539 L38.4227809,60.4819001 Z M77.1064757,58.2624855 L59.431302,29.1644868 L95.7122089,28.6380395 L77.1064757,58.2624855 Z M129.82396,85.6575933 C118.435519,85.6575933 109.170599,76.3899373 109.170599,64.9981334 C109.170599,57.3902005 113.306033,50.7344377 119.44346,47.1495349 L125.062531,66.389423 C125.831383,69.020171 128.587347,70.5300477 131.214343,69.7609683 C133.844314,68.9923849 135.353249,66.2370956 134.584892,63.6073399 L128.964333,44.3614977 C129.249553,44.3495893 129.535764,44.3396657 129.82396,44.3396657 C141.212401,44.3396657 150.477321,53.6073218 150.477321,64.9986295 C150.477321,76.3899373 141.212401,85.6575933 129.82396,85.6575933 Z" id="Shape"></path>
                                </g>
                            </g>
                        </g>
                    </g>
                </g>
            </g>
        </g>
    </g>
</svg>