<?xml version="1.0" encoding="UTF-8"?>
<svg width="108px" height="94px" viewBox="0 0 108 94" version="1.1" xmlns="http://www.w3.org/2000/svg" xmlns:xlink="http://www.w3.org/1999/xlink">
    <!-- Generator: Sketch 47 (45396) - http://www.bohemiancoding.com/sketch -->
    <title>Capa_1</title>
    <desc>Created with Sketch.</desc>
    <defs></defs>
    <g id="Page-1" stroke="none" stroke-width="1" fill="none" fill-rule="evenodd">
        <g id="Desktop-HD" transform="translate(-873.000000, -790.000000)" fill-rule="nonzero" fill="#CCCCCC">
            <g id="Group-11" transform="translate(140.000000, 738.000000)">
                <g id="Group-7" transform="translate(564.000000, 0.000000)">
                    <g id="car-wheel">
                        <g transform="translate(169.947008, 52.461361)" id="Capa_1">
                            <g>
                                <g id="Group">
                                    <path d="M53.1966886,0 C23.8640445,0 0,23.8636265 0,53.1962707 C0,82.5289148 23.8640445,106.392541 53.1966886,106.392541 C82.5289148,106.392541 106.392959,82.5289148 106.392959,53.1962707 C106.392959,23.8636265 82.5284968,0 53.1966886,0 Z M53.1966886,90.9786391 C32.3296525,90.9786391 15.4139022,74.0633068 15.4139022,53.1962707 C15.4139022,32.3292345 32.3296525,15.4139022 53.1966886,15.4139022 C74.0628888,15.4139022 90.9790571,32.3292345 90.9790571,53.1962707 C90.9790571,74.0633068 74.0624708,90.9786391 53.1966886,90.9786391 Z" id="Shape"></path>
                                    <path d="M53.1966886,20.3052538 C35.0599814,20.3052538 20.3052538,35.0599814 20.3052538,53.1962707 C20.3052538,71.3325599 35.0603994,86.0872875 53.1966886,86.0872875 C71.3329779,86.0872875 86.0877055,71.3325599 86.0877055,53.1962707 C86.0877055,35.0599814 71.3325599,20.3052538 53.1966886,20.3052538 Z M81.8755921,51.0992008 L65.9166273,51.0992008 C65.5905929,49.0823856 64.7938987,47.2223177 63.6448365,45.6322731 L74.9114142,34.3656954 C78.866462,38.9201448 81.4128741,44.7235568 81.8755921,51.0992008 Z M55.2603191,24.5144413 C61.6322012,24.9687994 67.4335231,27.5055977 71.9904806,31.4493597 L60.7264108,42.7138474 C59.1363662,41.5652032 57.2767163,40.768927 55.2603191,40.4428926 L55.2603191,24.5144413 Z M51.1326402,24.5144413 L51.1326402,40.4424746 C49.116243,40.768509 47.2561751,41.5647852 45.6661305,42.7138474 L34.4016428,31.4497777 C38.9586002,27.5060157 44.7607581,24.9687994 51.1326402,24.5144413 Z M31.4802911,34.3661134 L42.7472868,45.6326911 C41.5982247,47.2223177 40.8019484,49.0823856 40.475914,51.0987828 L24.5169492,51.0987828 C24.9796672,44.7235568 27.5260793,38.9205628 31.4802911,34.3661134 Z M24.5123513,55.2264616 L40.476332,55.2264616 C40.8019484,57.2428589 41.5986426,59.1029268 42.7477048,60.6929714 L31.4497777,71.9908985 C27.4989098,67.4255813 24.9600216,61.6113015 24.5123513,55.2264616 Z M51.1326402,81.8781 C44.7436204,81.4224879 38.9285047,78.8735679 34.3656954,74.9118322 L45.6661305,63.611397 C47.2561751,64.7604592 49.116243,65.5567355 51.1326402,65.8827699 L51.1326402,81.8781 Z M51.1326402,61.6367991 L51.1326402,61.6668946 C50.2418976,61.4503743 49.405912,61.0984244 48.6443291,60.6327804 L48.6639748,60.6131348 C47.4726954,59.8866633 46.4720206,58.8859885 45.7455491,57.6942911 L45.7263215,57.7135188 C45.2606775,56.9519359 44.9087276,56.1163683 44.6922073,55.2256257 L44.7218848,55.2256257 C44.5609576,54.5631071 44.4664912,53.874255 44.4664912,53.1619952 C44.4664912,52.4497355 44.5613756,51.7608834 44.7218848,51.0983648 L44.6922073,51.0983648 C44.9087276,50.2080402 45.2602595,49.3724726 45.7263215,48.6108897 L45.7455491,48.6301174 C46.4720206,47.4388379 47.4731133,46.4377452 48.6639748,45.7116917 L48.6443291,45.6920461 C49.405912,45.2264021 50.2418976,44.8740342 51.1326402,44.6579319 L51.1326402,44.6880274 C51.7955768,44.5271001 52.4840109,44.4322158 53.1966886,44.4322158 C53.9093664,44.4322158 54.5978005,44.5271001 55.2607371,44.6880274 L55.2607371,44.6579319 C56.1514797,44.8744522 56.9870473,45.2259841 57.7482122,45.6916281 L57.7285665,45.7112737 C58.9202639,46.4373272 59.9209387,47.4384199 60.6474102,48.6296994 L60.6666378,48.6104717 C61.1326998,49.3720546 61.4846497,50.2080402 61.70117,51.0987828 L61.6714925,51.0987828 C61.8324197,51.7613014 61.9268861,52.4501535 61.9268861,53.1624132 C61.9268861,53.874673 61.8320017,54.5635251 61.6714925,55.2260436 L61.70117,55.2260436 C61.4846497,56.1167863 61.1331178,56.9527719 60.6666378,57.7143547 L60.6474102,57.6951271 C59.9209387,58.8864065 58.919846,59.8870813 57.7285665,60.6135527 L57.7482122,60.6327804 C56.9870473,61.0984244 56.1514797,61.4503743 55.2607371,61.6668946 L55.2607371,61.6367991 C54.5978005,61.7977263 53.9093664,61.8926107 53.1966886,61.8926107 C52.4840109,61.8926107 51.7955768,61.7981443 51.1326402,61.6367991 Z M55.2603191,81.8781 L55.2603191,65.8827699 C57.2767163,65.5567355 59.1363662,64.7604592 60.7264108,63.611815 L72.0264279,74.9118322 C67.4640366,78.8735679 61.6489209,81.4224879 55.2603191,81.8781 Z M74.9427636,71.9908985 L63.6452545,60.6933894 C64.7943166,59.1033448 65.5905929,57.2432769 65.9170453,55.2264616 L81.880608,55.2264616 C81.4325197,61.6113015 78.8940495,67.4255813 74.9427636,71.9908985 Z" id="Shape"></path>
                                </g>
                            </g>
                        </g>
                    </g>
                </g>
            </g>
        </g>
    </g>
</svg>