<?xml version="1.0" encoding="UTF-8"?>
<svg width="107px" height="92px" viewBox="0 0 107 92" version="1.1" xmlns="http://www.w3.org/2000/svg" xmlns:xlink="http://www.w3.org/1999/xlink">
    <!-- Generator: Sketch 47 (45396) - http://www.bohemiancoding.com/sketch -->
    <title>Capa_1</title>
    <desc>Created with Sketch.</desc>
    <defs></defs>
    <g id="Page-1" stroke="none" stroke-width="1" fill="none" fill-rule="evenodd">
        <g id="Desktop-HD" transform="translate(-1155.000000, -792.000000)" fill-rule="nonzero" fill="#CCCCCC">
            <g id="Group-11" transform="translate(140.000000, 738.000000)">
                <g id="Group-6" transform="translate(845.000000, 0.000000)">
                    <g id="settings" transform="translate(-0.000000, 0.000000)">
                        <g transform="translate(169.874883, 54.126801)" id="Capa_1">
                            <g>
                                <g id="Group">
                                    <path d="M25.9045122,45.5467505 C28.8971106,45.1433209 31.8897089,46.1743076 34.0113272,48.3035192 L39.3712049,53.6825802 L44.4407558,48.6172978 L37.1155897,41.2883272 C35.9766157,40.1452768 35.9766157,38.2850182 37.1155897,37.1419677 C38.2545637,35.9989173 40.108188,35.9989173 41.2471621,37.1419677 L48.5723282,44.493351 L53.6418792,39.4280686 L48.2596687,34.0265949 C46.1380504,31.8973833 45.1107406,28.8716615 45.5127314,25.8907652 C46.4060443,19.077288 44.2397604,11.9500322 39.0362125,6.70544775 C33.7210005,1.37121229 26.4405,-0.780412095 19.5396574,0.25057459 C18.4453491,0.407463868 17.9986926,1.77464186 18.7803414,2.55908826 L25.6811839,9.48462925 C28.964109,12.7793041 28.964109,18.1135396 25.6811839,21.3858016 L21.4379474,25.6442249 C18.1550224,28.9388997 12.8398103,28.9388997 9.57921806,25.6442249 L2.65604272,18.7186839 C1.87439389,17.9342375 0.534424471,18.3824926 0.355761881,19.4807175 C-0.671548008,26.4062585 1.47240307,33.7128164 6.7876151,39.0470518 C12.0134958,44.2692235 19.1153338,46.4432606 25.9045122,45.5467505 Z" id="Shape"></path>
                                    <path d="M68.8281993,54.6687414 L63.7586483,59.7340238 L93.8632947,89.9464162 C95.0022687,91.0894667 95.0022687,92.9497253 93.8632947,94.0927757 C92.7243207,95.2358262 90.8706963,95.2358262 89.7317223,94.0927757 L59.627076,63.8803833 L54.557525,68.9456657 L85.5778171,100.076981 C89.508394,104.021626 95.8732488,103.999213 99.8038258,100.054568 C103.734403,96.1099236 103.734403,89.7222887 99.8261586,85.777644 L68.8281993,54.6687414 Z" id="Shape"></path>
                                    <path d="M80.4636005,34.4972627 L93.8409618,34.4972627 L107.218323,7.66919617 L100.540809,0.967782719 L73.7860862,14.3706096 L73.7860862,27.7958493 L37.4282492,64.1717491 L30.8847319,57.6272249 L4.53199991,84.0742747 C-0.961874716,89.5878121 -0.961874716,98.5080883 4.53199991,104.021626 C10.0258745,109.535163 18.9143384,109.535163 24.408213,104.021626 L50.7609449,77.574576 L44.0834307,70.8731625 L80.4636005,34.4972627 Z" id="Shape"></path>
                                </g>
                            </g>
                        </g>
                    </g>
                </g>
            </g>
        </g>
    </g>
</svg>