<?xml version="1.0" encoding="UTF-8"?>
<svg width="110px" height="88px" viewBox="0 0 110 88" version="1.1" xmlns="http://www.w3.org/2000/svg" xmlns:xlink="http://www.w3.org/1999/xlink">
    <!-- Generator: Sketch 47 (45396) - http://www.bohemiancoding.com/sketch -->
    <title>directory</title>
    <desc>Created with Sketch.</desc>
    <defs></defs>
    <g id="Page-1" stroke="none" stroke-width="1" fill="none" fill-rule="evenodd">
        <g id="Desktop-HD" transform="translate(-307.000000, -796.000000)" fill-rule="nonzero" fill="#CCCCCC">
            <g id="Group-11" transform="translate(140.000000, 738.000000)">
                <g id="Group-5">
                    <g id="directory">
                        <g transform="translate(167.376723, 58.290401)" id="Layer_1">
                            <g>
                                <path d="M104.688528,0 L5.23027442,0 C2.40069908,0 0.0986391403,2.30887238 0.0986391403,5.14682122 C0.0986391403,6.16116528 0.918471995,6.98318354 1.92958318,6.98318354 C2.94069437,6.98318354 3.76052722,6.16116528 3.76052722,5.14682122 C3.76052722,4.33394987 4.41980148,3.67272464 5.23027442,3.67272464 L104.688768,3.67272464 C105.499241,3.67272464 106.158515,4.33394987 106.158515,5.14682122 L106.158515,118.0955 C106.158515,118.908372 105.499241,119.569597 104.688768,119.569597 L98.8397786,119.569597 C97.8284274,119.569597 97.0088345,120.391615 97.0088345,121.405959 C97.0088345,122.420303 97.8284274,123.242322 98.8397786,123.242322 L104.688768,123.242322 C107.518343,123.242322 109.820403,120.933449 109.820403,118.0955 L109.820403,5.14682122 C109.820403,2.30887238 107.517863,0 104.688528,0 Z" id="Shape"></path>
                                <path d="M88.1917914,119.569838 L5.23027442,119.569838 C4.41980148,119.569838 3.76052722,118.908612 3.76052722,118.095741 L3.76052722,13.7357687 C3.76052722,12.7214246 2.94069437,11.8994064 1.92958318,11.8994064 C0.918471995,11.8994064 0.0986391403,12.7214246 0.0986391403,13.7357687 L0.0986391403,118.0955 C0.0986391403,120.933449 2.40069908,123.242322 5.23027442,123.242322 L88.1920314,123.242322 C89.2033825,123.242322 90.0229754,122.420303 90.0229754,121.405959 C90.0227354,120.391615 89.2033825,119.569838 88.1917914,119.569838 Z" id="Shape"></path>
                                <path d="M32.4239574,20.7740744 L17.5162473,20.7740744 C16.5051361,20.7740744 15.6853033,21.5960927 15.6853033,22.6104367 L15.6853033,37.5617815 C15.6853033,38.5761255 16.5051361,39.3981438 17.5162473,39.3981438 L32.4237174,39.3981438 C33.4348286,39.3981438 34.2546614,38.5761255 34.2546614,37.5617815 L34.2546614,22.6104367 C34.2546614,21.5958519 33.4350686,20.7740744 32.4239574,20.7740744 Z M30.5930134,35.7254191 L19.3474314,35.7254191 L19.3474314,24.446799 L30.5930134,24.446799 L30.5930134,35.7254191 Z" id="Shape"></path>
                                <path d="M32.4239574,50.288261 L17.5162473,50.288261 C16.5051361,50.288261 15.6853033,51.1102792 15.6853033,52.1246233 L15.6853033,67.0762087 C15.6853033,68.0905528 16.5051361,68.9125711 17.5162473,68.9125711 L32.4237174,68.9125711 C33.4348286,68.9125711 34.2546614,68.0905528 34.2546614,67.0762087 L34.2546614,52.1246233 C34.2546614,51.1100385 33.4350686,50.288261 32.4239574,50.288261 Z M30.5930134,65.2398464 L19.3474314,65.2398464 L19.3474314,53.9609856 L30.5930134,53.9609856 L30.5930134,65.2398464 Z" id="Shape"></path>
                                <path d="M32.4239574,79.8026882 L17.5162473,79.8026882 C16.5051361,79.8026882 15.6853033,80.6247065 15.6853033,81.6390506 L15.6853033,96.590636 C15.6853033,97.6049801 16.5051361,98.4269983 17.5162473,98.4269983 L32.4237174,98.4269983 C33.4348286,98.4269983 34.2546614,97.6049801 34.2546614,96.590636 L34.2546614,81.6390506 C34.2546614,80.6244658 33.4350686,79.8026882 32.4239574,79.8026882 Z M30.5930134,94.7542737 L19.3474314,94.7542737 L19.3474314,83.4754129 L30.5930134,83.4754129 L30.5930134,94.7542737 Z" id="Shape"></path>
                                <path d="M93.9531811,20.7740744 L43.5329806,20.7740744 C42.5218694,20.7740744 41.7020365,21.5960927 41.7020365,22.6104367 L41.7020365,37.5617815 C41.7020365,38.5761255 42.5218694,39.3981438 43.5329806,39.3981438 L93.9529411,39.3981438 C94.9642923,39.3981438 95.7838852,38.5761255 95.7838852,37.5617815 L95.7838852,22.6104367 C95.7841252,21.5958519 94.9645323,20.7740744 93.9531811,20.7740744 Z M45.3639246,35.7254191 L45.3639246,24.446799 L92.1222371,24.446799 L92.1222371,35.7254191 L45.3639246,35.7254191 Z" id="Shape"></path>
                                <path d="M93.9531811,50.288261 L43.5329806,50.288261 C42.5218694,50.288261 41.7020365,51.1102792 41.7020365,52.1246233 L41.7020365,67.0762087 C41.7020365,68.0905528 42.5218694,68.9125711 43.5329806,68.9125711 L93.9529411,68.9125711 C94.9642923,68.9125711 95.7838852,68.0905528 95.7838852,67.0762087 L95.7838852,52.1246233 C95.7841252,51.1100385 94.9645323,50.288261 93.9531811,50.288261 Z M45.3639246,65.2398464 L45.3639246,53.9609856 L92.1222371,53.9609856 L92.1222371,65.2398464 L45.3639246,65.2398464 Z" id="Shape"></path>
                                <path d="M93.9531811,79.8026882 L43.5329806,79.8026882 C42.5218694,79.8026882 41.7020365,80.6247065 41.7020365,81.6390506 L41.7020365,96.590636 C41.7020365,97.6049801 42.5218694,98.4269983 43.5329806,98.4269983 L93.9529411,98.4269983 C94.9642923,98.4269983 95.7838852,97.6049801 95.7838852,96.590636 L95.7838852,81.6390506 C95.7841252,80.6247065 94.9645323,79.8026882 93.9531811,79.8026882 Z M45.3639246,94.7542737 L45.3639246,83.4754129 L92.1222371,83.4754129 L92.1222371,94.7542737 L45.3639246,94.7542737 Z" id="Shape"></path>
                            </g>
                        </g>
                    </g>
                </g>
            </g>
        </g>
    </g>
</svg>