<?xml version="1.0" encoding="UTF-8"?>
<svg width="95px" height="92px" viewBox="0 0 95 92" version="1.1" xmlns="http://www.w3.org/2000/svg" xmlns:xlink="http://www.w3.org/1999/xlink">
    <!-- Generator: Sketch 47 (45396) - http://www.bohemiancoding.com/sketch -->
    <title>handbag</title>
    <desc>Created with Sketch.</desc>
    <defs></defs>
    <g id="Page-1" stroke="none" stroke-width="1" fill="none" fill-rule="evenodd">
        <g id="Desktop-HD" transform="translate(-604.000000, -792.000000)" fill-rule="nonzero" fill="#CCCCCC">
            <g id="Group-11" transform="translate(140.000000, 738.000000)">
                <g id="Group-5-Copy" transform="translate(282.000000, 0.000000)">
                    <g id="directory">
                        <g id="handbag">
                            <g transform="translate(181.532963, 54.959521)" id="Capa_1">
                                <g>
                                    <path d="M95.5068376,99.3900722 L88.3657965,3.11702308 C88.2351295,1.35940456 86.775418,0 85.0185734,0 L11.1827683,0 C9.43174099,0 7.97516193,1.35042567 7.8368876,3.10175896 L0.22956223,99.6248703 C0.155726425,100.56092 0.475234091,101.485746 1.11022201,102.175325 C1.74565743,102.864904 2.63929441,103.257282 3.57544292,103.257282 L92.178409,103.257282 L92.1873588,103.257282 C94.0413088,103.257282 95.5435318,101.750174 95.5435318,99.8901966 C95.5435318,99.7200465 95.5310021,99.5530391 95.5068376,99.3900722 Z M61.8238383,14.6266184 C61.8238383,18.4498315 58.7343692,21.5493458 54.9235467,21.5493458 L40.0847873,21.5493458 C36.2739648,21.5493458 33.1844957,18.4498315 33.1844957,14.6266184 L33.1844957,14.5547873 C33.1844957,10.7315742 36.2739648,7.63205996 40.0847873,7.63205996 L54.9235467,7.63205996 C58.7343692,7.63205996 61.8238383,10.7315742 61.8238383,14.5547873 L61.8238383,14.6266184 Z" id="Shape"></path>
                                </g>
                            </g>
                        </g>
                    </g>
                </g>
            </g>
        </g>
    </g>
</svg>