<?xml version="1.0" encoding="UTF-8"?>
<svg width="20px" height="19px" viewBox="0 0 20 19" version="1.1" xmlns="http://www.w3.org/2000/svg" xmlns:xlink="http://www.w3.org/1999/xlink">
    <!-- Generator: Sketch 47 (45396) - http://www.bohemiancoding.com/sketch -->
    <title>profile</title>
    <desc>Created with Sketch.</desc>
    <defs></defs>
    <g id="Page-1" stroke="none" stroke-width="1" fill="none" fill-rule="evenodd">
        <g id="Desktop-HD" transform="translate(-594.000000, -68.000000)" fill-rule="nonzero" fill="#FFFFFF">
            <g id="Group-8" transform="translate(140.000000, 37.000000)">
                <g id="Group-10" transform="translate(454.000000, 29.000000)">
                    <g id="profile" transform="translate(0.000000, 2.000000)">
                        <g id="Capa_1">
                            <path d="M9.9570922,10.6498532 C12.9097872,10.6498532 15.3047163,8.26468216 15.3047163,5.32409665 C15.3047163,2.38351115 12.9097518,0.0146561338 9.9570922,0.0146561338 C7.00443262,0.0146561338 4.60946809,2.39982714 4.60946809,5.32409665 C4.60946809,8.24836617 7.00439716,10.6498532 9.9570922,10.6498532 Z M9.9570922,1.40328067 C12.1223759,1.40328067 13.8940071,3.16763197 13.8940071,5.32409665 C13.8940071,7.48056134 12.1223759,9.24487732 9.9570922,9.24487732 C7.79180851,9.24487732 6.0201773,7.48052602 6.0201773,5.32406134 C6.0201773,3.16759665 7.79177305,1.40328067 9.9570922,1.40328067 Z" id="Shape"></path>
                            <path d="M0.70535461,18.9652138 L19.2744326,18.9652138 C19.6681206,18.9652138 19.9797872,18.6548216 19.9797872,18.2627435 C19.9797872,14.5869851 16.9779078,11.5810297 13.2706383,11.5810297 L6.70914894,11.5810297 C3.01829787,11.5810297 0,14.5706338 0,18.2627435 C0,18.6548216 0.311666667,18.9652138 0.70535461,18.9652138 Z M6.70914894,12.9859703 L13.2706383,12.9859703 C15.9608511,12.9859703 18.1753546,14.9790632 18.5198582,17.5602379 L1.45992908,17.5602379 C1.80439716,14.9954145 4.01893617,12.9859703 6.70914894,12.9859703 Z" id="Shape"></path>
                        </g>
                    </g>
                </g>
            </g>
        </g>
    </g>
</svg>