<?xml version="1.0" encoding="UTF-8"?>
<svg width="19px" height="19px" viewBox="0 0 19 19" version="1.1" xmlns="http://www.w3.org/2000/svg" xmlns:xlink="http://www.w3.org/1999/xlink">
    <!-- Generator: Sketch 47 (45396) - http://www.bohemiancoding.com/sketch -->
    <title>shopping-cart</title>
    <desc>Created with Sketch.</desc>
    <defs></defs>
    <g id="Page-1" stroke="none" stroke-width="1" fill="none" fill-rule="evenodd">
        <g id="Desktop-HD" transform="translate(-463.000000, -68.000000)" fill-rule="nonzero" fill="#FFFFFF">
            <g id="Group-8" transform="translate(140.000000, 37.000000)">
                <g id="Group-9" transform="translate(323.000000, 29.000000)">
                    <g id="shopping-cart" transform="translate(0.000000, 2.000000)">
                        <g id="Layer_1">
                            <path d="M16.0487979,14.4457784 L6.14467876,14.4457784 L5.93498964,13.5923454 L17.1594611,13.5923454 L18.9773575,5.71341753 L4.14800518,3.94494845 L3.46863212,0 L0.0281554404,0 L0.0281554404,1.49032474 L2.20537824,1.49032474 L2.59610881,3.75984536 L4.35474093,13.5925412 L4.61040415,14.4787835 C3.5497513,14.6548763 2.73787047,15.5721649 2.73787047,16.6765155 C2.73787047,17.9068144 3.74378756,18.9075464 4.9801658,18.9075464 C6.21654404,18.9075464 7.22275648,17.9068144 7.22275648,16.6765155 C7.22275648,16.4169794 7.17560104,16.1680206 7.09290674,15.936299 L13.936057,15.936299 C13.853658,16.1683144 13.8062073,16.4171753 13.8062073,16.6765155 C13.8062073,17.9068144 14.8121244,18.9075464 16.0483057,18.9075464 C17.2849793,18.9075464 18.2908964,17.9068144 18.2908964,16.6765155 C18.2916839,15.4466082 17.2854715,14.4457784 16.0487979,14.4457784 Z M4.41213472,5.47719072 L17.1442021,6.99591753 L15.9660052,12.1020206 L5.6060829,12.1020206 L4.61611399,6.6615567 L4.41213472,5.47719072 Z M4.98075648,17.4170258 C4.57033679,17.4170258 4.23650777,17.0847216 4.23650777,16.6763196 C4.23650777,16.2682113 4.57033679,15.9361031 4.98075648,15.9361031 C5.39117617,15.9361031 5.72500518,16.2685052 5.72500518,16.6763196 C5.72500518,17.0849175 5.39117617,17.4170258 4.98075648,17.4170258 Z M16.0487979,17.4173196 C15.6385751,17.4173196 15.3047461,17.0850155 15.3047461,16.6766134 C15.3047461,16.2685052 15.638772,15.9363969 16.0487979,15.9363969 C16.459513,15.9363969 16.793342,16.268701 16.793342,16.6766134 C16.7936373,17.0849175 16.459513,17.4173196 16.0487979,17.4173196 Z" id="Shape"></path>
                        </g>
                    </g>
                </g>
            </g>
        </g>
    </g>
</svg>