<?xml version="1.0" encoding="UTF-8"?>
<svg width="124px" height="92px" viewBox="0 0 124 92" version="1.1" xmlns="http://www.w3.org/2000/svg" xmlns:xlink="http://www.w3.org/1999/xlink">
    <!-- Generator: Sketch 47 (45396) - http://www.bohemiancoding.com/sketch -->
    <title>t-shirt-black-silhouette</title>
    <desc>Created with Sketch.</desc>
    <defs></defs>
    <g id="Page-1" stroke="none" stroke-width="1" fill="none" fill-rule="evenodd">
        <g id="Desktop-HD" transform="translate(-293.000000, -942.000000)" fill-rule="nonzero" fill="#CCCCCC">
            <g id="Group-11" transform="translate(140.000000, 738.000000)">
                <g id="Group-6-Copy" transform="translate(0.000000, 150.000000)">
                    <g id="settings">
                        <g id="t-shirt-black-silhouette">
                            <g transform="translate(153.220483, 54.126801)" id="Capa_1">
                                <g>
                                    <g id="Group">
                                        <path d="M97.7416134,7.03155148 L96.0708099,8.70146196 L96.0708099,7.03155148 L87.8399389,7.03155148 C84.1288911,12.7517419 76.2940871,16.7057446 67.1978596,16.7057446 C58.1049605,16.7057446 50.2701565,12.7517419 46.5591087,7.03155148 L38.3282377,7.03155148 L38.3282377,8.70146196 L36.6541059,7.03155148 L7.05225926,36.5753554 L23.2444094,52.739956 L38.3282377,37.6875224 L38.3282377,112.95633 L96.0641533,112.95633 L96.0641533,37.6908423 L111.15131,52.7432759 L127.340132,36.5753554 L97.7416134,7.03155148 Z" id="Shape"></path>
                                        <path d="M96.0641533,119.596133 L38.3282377,119.596133 C34.6538012,119.596133 31.6716498,116.621502 31.6716498,112.95633 L31.6716498,53.7226469 L27.9506171,57.4342968 C26.7025069,58.6825798 25.0084052,59.3797591 23.2410811,59.3797591 L23.2410811,59.3797591 C21.4770853,59.3797591 19.7796554,58.6792599 18.5315452,57.4342968 L2.33939499,41.2696962 C-0.256674307,38.6768531 -0.256674307,34.4771776 2.33939499,31.8810146 L31.9478982,2.33721069 C33.3923778,0.893053517 35.4792181,0.19255429 37.4895076,0.444866808 C37.765756,0.411667792 38.0453327,0.391748383 38.3282377,0.391748383 L46.5591087,0.391748383 C48.815692,0.391748383 50.9225021,1.53379452 52.1473143,3.4228185 C54.7666817,7.45981878 60.6744035,10.0659415 67.1978596,10.0659415 C73.7213158,10.0659415 79.6323659,7.45981878 82.2517333,3.4228185 C83.4765455,1.53379452 85.5800273,0.391748383 87.8399389,0.391748383 L96.0708099,0.391748383 C96.3537149,0.391748383 96.6332915,0.408347891 96.9095399,0.444866808 C97.1824601,0.411667792 97.4587085,0.391748383 97.7382851,0.391748383 L97.7416134,0.391748383 C99.5056092,0.391748383 101.199711,1.09224761 102.451149,2.33721069 L132.052996,31.8776947 C134.649065,34.4705378 134.649065,38.6702133 132.052996,41.2663763 L115.864174,57.4342968 C114.616064,58.6792599 112.921962,59.3797591 111.157966,59.3797591 L111.154638,59.3797591 C109.390642,59.383079 107.696541,58.6825798 106.44843,57.4376167 L102.72407,53.719327 L102.72407,112.95633 C102.720741,116.624822 99.7419181,119.596133 96.0641533,119.596133 Z M44.9848257,106.316527 L89.4075653,106.316527 L89.4075653,37.6908423 C89.4075653,35.0050419 91.0284445,32.5848337 93.5146801,31.5556642 C96.004244,30.5231748 98.8632485,31.0941979 100.770361,32.9965015 L111.147982,43.3479545 L117.931045,36.5753554 L96.6332915,15.3180258 C95.5715658,15.4143029 94.5264815,15.2483078 93.524665,14.83664 C92.8290515,14.5511285 92.200004,14.1527403 91.6541638,13.6713546 L91.0816972,13.6713546 C85.5866839,19.7135754 76.780018,23.3455477 67.1978596,23.3455477 C57.6157013,23.3455477 48.8123637,19.7135754 43.3140221,13.6713546 L42.7415555,13.6713546 C42.1990436,14.1527403 41.5699961,14.5478086 40.8743826,14.83664 C39.8659095,15.2516277 38.7941989,15.3977034 37.7590995,15.3180258 L16.458018,36.5786753 L23.2410811,43.3512744 L33.6153735,32.9965015 C35.5191576,31.0941979 38.3814904,30.5264948 40.8710543,31.5556642 C43.3606182,32.5848337 44.9814974,35.0050419 44.9814974,37.6908423 L44.9814974,106.316527 L44.9848257,106.316527 Z" id="Shape"></path>
                                    </g>
                                </g>
                            </g>
                        </g>
                    </g>
                </g>
            </g>
        </g>
    </g>
</svg>