<?xml version="1.0" encoding="utf-8"?>
<svg version="1.1" id="Capa_1" xmlns="http://www.w3.org/2000/svg" xmlns:xlink="http://www.w3.org/1999/xlink" x="0px" y="0px"
	 width="50px" height="50px" viewBox="0 0 512 512" enable-background="new 0 0 512 512" xml:space="preserve">
<path fill="#212121" d="M479.725,395.716c0-0.105,0-0.212,0-0.317c0-0.849-0.106-1.697-0.106-2.651
	c-0.636-20.993-18.015-44.083-64.029-59.774c-0.318-0.106-0.742-0.213-1.061-0.318C332.5,326.5,318,285,316.247,268.969
	c5.794-4.113,7.146-8.92,12.038-14.427c40.82-46.016,42.035-126.899,41.293-134.427c-2.65-56.512-33.369-85.548-55.423-98.166
	C297.721,12.513,278.53,7.424,257.113,7h-0.742c-0.106,0-0.318,0-0.424,0h-0.637c-11.769,0-34.882,1.908-57.042,14.525
	c-22.265,12.617-53.408,41.654-56.059,98.59c-0.742,7.527,0.473,88.412,41.292,134.427c4.916,5.565,6.311,10.416,12.161,14.559
	C194,283,182,327.5,97.472,332.548c-0.424,0.106-0.742,0.212-1.061,0.318c-46.015,15.798-63.394,37.888-64.03,58.775
	c0,0.954,0,1.802-0.106,2.65c0,0.106,0,0.212,0,0.318C32.169,400.123,29.196,512,29.196,512h453.926
	C483.122,512,479.83,401.229,479.725,395.716z M170.519,124.766c0-0.318,0.106-0.636,0.106-0.848
	c3.499-76.021,61.466-88.185,84.58-88.185h0.424c0.212,0,0.53,0,0.848,0c28.626,0.636,81.292,16.299,84.58,88.185
	c0,0.318,0,0.636,0.106,0.848c0.106,0.742-0.472,72.84-34.188,110.797c-13.359,15.056-27.172,22.478-50.604,22.689
	c-0.212,0-0.318,0-0.53,0s-0.318,0-0.53,0c-23.326-0.212-37.244-7.634-50.498-22.689
	C171.203,197.818,170.413,125.402,170.519,124.766z M59.023,487.583c0,0,1.562-67.9,1.773-77.442c0-0.849,0.106-1.697,0.106-2.651
	c0.742-24.174,18.396-40.711,44.203-45.374C227.5,340,216.446,287.308,220.974,281.673c10.151,3.255,21.22,5.003,33.17,5.207
	c0.53,0,1.06,0,1.696,0c0.212,0,0.424,0,0.636,0c0.318,0,0.742,0,1.06,0c12.047-0.206,23.196-1.98,33.42-5.286
	C295.32,286.93,285,340,406.895,362.221c25.8,4.703,43.461,21.201,44.203,45.375c0,0.954,0,1.803,0.105,2.65
	c0.106,9.543,1.773,77.442,1.773,77.442L59.023,487.583z"/>
</svg>
